<?xml version="1.0" encoding="UTF-8"?>
<svg width="16px" height="16px" viewBox="0 0 16 16" version="1.1" xmlns="http://www.w3.org/2000/svg" xmlns:xlink="http://www.w3.org/1999/xlink">
    <title>Artboard</title>
    <g id="Artboard" stroke="none" stroke-width="1" fill="none" fill-rule="evenodd">
        <g id="midi_input" transform="translate(1, 1)" fill="#E0E0E0">
            <path d="M13,0 C13.5522847,0 14,0.44771525 14,1 L14,13 C14,13.5522847 13.5522847,14 13,14 L1,14 C0.44771525,14 0,13.5522847 0,13 L0,1 C0,0.44771525 0.44771525,0 1,0 L13,0 Z M8,3 L8,9 L10,9 L10,3 L12,3 L12,11 L6,11 L6,5 L4,5 L4,11 L2,11 L2,3 L8,3 Z" id="Shape"></path>
        </g>
    </g>
</svg>